<mxfile host="app.diagrams.net" modified="2022-05-01T04:34:18.445Z" agent="5.0 (Windows NT 10.0; Win64; x64) AppleWebKit/537.36 (KHTML, like Gecko) Chrome/101.0.4951.41 Safari/537.36 Edg/101.0.1210.32" etag="62l51atItgZAfJsU4zCb" version="17.2.4" type="github">
  <diagram id="dC4g89JmHl8n1wER_1kU" name="Page-1">
    <mxGraphModel dx="981" dy="542" grid="1" gridSize="10" guides="1" tooltips="1" connect="1" arrows="1" fold="1" page="1" pageScale="1" pageWidth="1169" pageHeight="1654" math="0" shadow="0">
      <root>
        <mxCell id="0" />
        <mxCell id="1" parent="0" />
        <mxCell id="KV3lKNW2GALLuynHb-iU-1" value="" style="endArrow=classic;html=1;rounded=0;" edge="1" parent="1">
          <mxGeometry width="50" height="50" relative="1" as="geometry">
            <mxPoint x="120" y="440" as="sourcePoint" />
            <mxPoint x="200" y="440" as="targetPoint" />
          </mxGeometry>
        </mxCell>
        <mxCell id="KV3lKNW2GALLuynHb-iU-2" value="" style="ellipse;whiteSpace=wrap;html=1;aspect=fixed;" vertex="1" parent="1">
          <mxGeometry x="200" y="410" width="60" height="60" as="geometry" />
        </mxCell>
        <mxCell id="KV3lKNW2GALLuynHb-iU-3" value="" style="endArrow=classic;html=1;rounded=0;entryX=0;entryY=0.5;entryDx=0;entryDy=0;" edge="1" parent="1" target="KV3lKNW2GALLuynHb-iU-4">
          <mxGeometry width="50" height="50" relative="1" as="geometry">
            <mxPoint x="260" y="440" as="sourcePoint" />
            <mxPoint x="330" y="440" as="targetPoint" />
          </mxGeometry>
        </mxCell>
        <mxCell id="KV3lKNW2GALLuynHb-iU-4" value="" style="ellipse;whiteSpace=wrap;html=1;aspect=fixed;" vertex="1" parent="1">
          <mxGeometry x="370" y="410" width="60" height="60" as="geometry" />
        </mxCell>
        <mxCell id="KV3lKNW2GALLuynHb-iU-5" value="" style="endArrow=classic;html=1;rounded=0;" edge="1" parent="1">
          <mxGeometry width="50" height="50" relative="1" as="geometry">
            <mxPoint x="430" y="439.5" as="sourcePoint" />
            <mxPoint x="670" y="440" as="targetPoint" />
          </mxGeometry>
        </mxCell>
        <mxCell id="KV3lKNW2GALLuynHb-iU-6" value="" style="curved=1;endArrow=classic;html=1;rounded=0;" edge="1" parent="1">
          <mxGeometry width="50" height="50" relative="1" as="geometry">
            <mxPoint x="380" y="420" as="sourcePoint" />
            <mxPoint x="410" y="410" as="targetPoint" />
            <Array as="points">
              <mxPoint x="370" y="400" />
              <mxPoint x="370" y="380" />
              <mxPoint x="380" y="370" />
              <mxPoint x="410" y="370" />
              <mxPoint x="420" y="390" />
            </Array>
          </mxGeometry>
        </mxCell>
        <mxCell id="KV3lKNW2GALLuynHb-iU-7" value="" style="endArrow=none;html=1;rounded=0;" edge="1" parent="1">
          <mxGeometry width="50" height="50" relative="1" as="geometry">
            <mxPoint x="230" y="1340" as="sourcePoint" />
            <mxPoint x="230" y="470" as="targetPoint" />
          </mxGeometry>
        </mxCell>
        <mxCell id="KV3lKNW2GALLuynHb-iU-8" value="" style="endArrow=classic;html=1;rounded=0;" edge="1" parent="1">
          <mxGeometry width="50" height="50" relative="1" as="geometry">
            <mxPoint x="230" y="570" as="sourcePoint" />
            <mxPoint x="370" y="570" as="targetPoint" />
          </mxGeometry>
        </mxCell>
        <mxCell id="KV3lKNW2GALLuynHb-iU-9" value="INT" style="ellipse;whiteSpace=wrap;html=1;aspect=fixed;" vertex="1" parent="1">
          <mxGeometry x="370" y="540" width="60" height="60" as="geometry" />
        </mxCell>
        <mxCell id="KV3lKNW2GALLuynHb-iU-10" value="" style="endArrow=classic;html=1;rounded=0;" edge="1" parent="1">
          <mxGeometry width="50" height="50" relative="1" as="geometry">
            <mxPoint x="430" y="569.5" as="sourcePoint" />
            <mxPoint x="670" y="570" as="targetPoint" />
          </mxGeometry>
        </mxCell>
        <mxCell id="KV3lKNW2GALLuynHb-iU-11" value="" style="curved=1;endArrow=classic;html=1;rounded=0;" edge="1" parent="1">
          <mxGeometry width="50" height="50" relative="1" as="geometry">
            <mxPoint x="380" y="550" as="sourcePoint" />
            <mxPoint x="410" y="540" as="targetPoint" />
            <Array as="points">
              <mxPoint x="370" y="530" />
              <mxPoint x="370" y="510" />
              <mxPoint x="380" y="500" />
              <mxPoint x="410" y="500" />
              <mxPoint x="420" y="520" />
            </Array>
          </mxGeometry>
        </mxCell>
        <mxCell id="KV3lKNW2GALLuynHb-iU-12" value="" style="endArrow=classic;html=1;rounded=0;" edge="1" parent="1">
          <mxGeometry width="50" height="50" relative="1" as="geometry">
            <mxPoint x="230" y="860" as="sourcePoint" />
            <mxPoint x="360" y="860" as="targetPoint" />
          </mxGeometry>
        </mxCell>
        <mxCell id="KV3lKNW2GALLuynHb-iU-13" value="" style="ellipse;whiteSpace=wrap;html=1;aspect=fixed;" vertex="1" parent="1">
          <mxGeometry x="360" y="830" width="60" height="60" as="geometry" />
        </mxCell>
        <mxCell id="KV3lKNW2GALLuynHb-iU-14" value="" style="endArrow=classic;html=1;rounded=0;" edge="1" parent="1">
          <mxGeometry width="50" height="50" relative="1" as="geometry">
            <mxPoint x="420" y="859.5" as="sourcePoint" />
            <mxPoint x="660" y="860" as="targetPoint" />
          </mxGeometry>
        </mxCell>
        <mxCell id="KV3lKNW2GALLuynHb-iU-16" value="" style="endArrow=classic;html=1;rounded=0;" edge="1" parent="1">
          <mxGeometry width="50" height="50" relative="1" as="geometry">
            <mxPoint x="230" y="1010" as="sourcePoint" />
            <mxPoint x="310" y="1009" as="targetPoint" />
          </mxGeometry>
        </mxCell>
        <mxCell id="KV3lKNW2GALLuynHb-iU-25" style="edgeStyle=orthogonalEdgeStyle;rounded=0;orthogonalLoop=1;jettySize=auto;html=1;exitX=1;exitY=0.5;exitDx=0;exitDy=0;entryX=0;entryY=0.5;entryDx=0;entryDy=0;" edge="1" parent="1" source="KV3lKNW2GALLuynHb-iU-17" target="KV3lKNW2GALLuynHb-iU-23">
          <mxGeometry relative="1" as="geometry" />
        </mxCell>
        <mxCell id="KV3lKNW2GALLuynHb-iU-17" value="大于小于" style="ellipse;whiteSpace=wrap;html=1;aspect=fixed;" vertex="1" parent="1">
          <mxGeometry x="310" y="976" width="60" height="60" as="geometry" />
        </mxCell>
        <mxCell id="KV3lKNW2GALLuynHb-iU-26" style="edgeStyle=orthogonalEdgeStyle;rounded=0;orthogonalLoop=1;jettySize=auto;html=1;exitX=1;exitY=0.5;exitDx=0;exitDy=0;" edge="1" parent="1" source="KV3lKNW2GALLuynHb-iU-23">
          <mxGeometry relative="1" as="geometry">
            <mxPoint x="660" y="1006" as="targetPoint" />
          </mxGeometry>
        </mxCell>
        <mxCell id="KV3lKNW2GALLuynHb-iU-23" value="双界" style="ellipse;whiteSpace=wrap;html=1;aspect=fixed;" vertex="1" parent="1">
          <mxGeometry x="480" y="976" width="60" height="60" as="geometry" />
        </mxCell>
        <mxCell id="KV3lKNW2GALLuynHb-iU-28" value="" style="endArrow=classic;html=1;rounded=0;entryX=0.5;entryY=0;entryDx=0;entryDy=0;" edge="1" parent="1" target="KV3lKNW2GALLuynHb-iU-33">
          <mxGeometry width="50" height="50" relative="1" as="geometry">
            <mxPoint x="670" y="440" as="sourcePoint" />
            <mxPoint x="670" y="940" as="targetPoint" />
          </mxGeometry>
        </mxCell>
        <mxCell id="KV3lKNW2GALLuynHb-iU-32" value="" style="endArrow=classic;html=1;rounded=0;" edge="1" parent="1">
          <mxGeometry width="50" height="50" relative="1" as="geometry">
            <mxPoint x="340" y="976" as="sourcePoint" />
            <mxPoint x="660" y="939" as="targetPoint" />
            <Array as="points">
              <mxPoint x="340" y="939" />
              <mxPoint x="480" y="939" />
            </Array>
          </mxGeometry>
        </mxCell>
        <mxCell id="KV3lKNW2GALLuynHb-iU-33" value="" style="ellipse;whiteSpace=wrap;html=1;aspect=fixed;" vertex="1" parent="1">
          <mxGeometry x="630" y="1330" width="60" height="60" as="geometry" />
        </mxCell>
        <mxCell id="KV3lKNW2GALLuynHb-iU-34" value="结束" style="ellipse;whiteSpace=wrap;html=1;aspect=fixed;" vertex="1" parent="1">
          <mxGeometry x="635" y="1335" width="50" height="50" as="geometry" />
        </mxCell>
        <mxCell id="KV3lKNW2GALLuynHb-iU-69" style="edgeStyle=orthogonalEdgeStyle;rounded=0;orthogonalLoop=1;jettySize=auto;html=1;exitX=1;exitY=0.5;exitDx=0;exitDy=0;entryX=0;entryY=0.5;entryDx=0;entryDy=0;" edge="1" parent="1" source="KV3lKNW2GALLuynHb-iU-38" target="KV3lKNW2GALLuynHb-iU-67">
          <mxGeometry relative="1" as="geometry" />
        </mxCell>
        <mxCell id="KV3lKNW2GALLuynHb-iU-38" value="" style="ellipse;whiteSpace=wrap;html=1;aspect=fixed;" vertex="1" parent="1">
          <mxGeometry x="435" y="640" width="60" height="60" as="geometry" />
        </mxCell>
        <mxCell id="KV3lKNW2GALLuynHb-iU-46" value="" style="endArrow=classic;html=1;rounded=0;exitX=0.5;exitY=1;exitDx=0;exitDy=0;entryX=0;entryY=0.5;entryDx=0;entryDy=0;" edge="1" parent="1" source="KV3lKNW2GALLuynHb-iU-9" target="KV3lKNW2GALLuynHb-iU-38">
          <mxGeometry width="50" height="50" relative="1" as="geometry">
            <mxPoint x="630" y="670" as="sourcePoint" />
            <mxPoint x="680" y="620" as="targetPoint" />
            <Array as="points">
              <mxPoint x="400" y="670" />
            </Array>
          </mxGeometry>
        </mxCell>
        <mxCell id="KV3lKNW2GALLuynHb-iU-48" value="" style="curved=1;endArrow=classic;html=1;rounded=0;" edge="1" parent="1">
          <mxGeometry width="50" height="50" relative="1" as="geometry">
            <mxPoint x="570" y="650" as="sourcePoint" />
            <mxPoint x="600" y="640" as="targetPoint" />
            <Array as="points">
              <mxPoint x="560" y="630" />
              <mxPoint x="560" y="610" />
              <mxPoint x="570" y="600" />
              <mxPoint x="600" y="600" />
              <mxPoint x="610" y="620" />
            </Array>
          </mxGeometry>
        </mxCell>
        <mxCell id="KV3lKNW2GALLuynHb-iU-49" value="" style="endArrow=classic;html=1;rounded=0;" edge="1" parent="1" target="KV3lKNW2GALLuynHb-iU-50">
          <mxGeometry width="50" height="50" relative="1" as="geometry">
            <mxPoint x="230" y="1340" as="sourcePoint" />
            <mxPoint x="320" y="1340" as="targetPoint" />
          </mxGeometry>
        </mxCell>
        <mxCell id="KV3lKNW2GALLuynHb-iU-50" value="Error！" style="ellipse;whiteSpace=wrap;html=1;aspect=fixed;" vertex="1" parent="1">
          <mxGeometry x="310" y="1310" width="60" height="60" as="geometry" />
        </mxCell>
        <mxCell id="KV3lKNW2GALLuynHb-iU-51" value="S" style="text;html=1;resizable=0;autosize=1;align=center;verticalAlign=middle;points=[];fillColor=none;strokeColor=none;rounded=0;" vertex="1" parent="1">
          <mxGeometry x="220" y="430" width="20" height="20" as="geometry" />
        </mxCell>
        <mxCell id="KV3lKNW2GALLuynHb-iU-53" value="ID/KW" style="text;html=1;resizable=0;autosize=1;align=center;verticalAlign=middle;points=[];fillColor=none;strokeColor=none;rounded=0;" vertex="1" parent="1">
          <mxGeometry x="375" y="430" width="50" height="20" as="geometry" />
        </mxCell>
        <mxCell id="KV3lKNW2GALLuynHb-iU-54" value="非字母、非数字" style="text;html=1;resizable=0;autosize=1;align=center;verticalAlign=middle;points=[];fillColor=none;strokeColor=none;rounded=0;" vertex="1" parent="1">
          <mxGeometry x="470" y="420" width="100" height="20" as="geometry" />
        </mxCell>
        <mxCell id="KV3lKNW2GALLuynHb-iU-55" value="字母" style="text;html=1;resizable=0;autosize=1;align=center;verticalAlign=middle;points=[];fillColor=none;strokeColor=none;rounded=0;" vertex="1" parent="1">
          <mxGeometry x="290" y="420" width="40" height="20" as="geometry" />
        </mxCell>
        <mxCell id="KV3lKNW2GALLuynHb-iU-56" value="" style="endArrow=classic;html=1;rounded=0;" edge="1" parent="1">
          <mxGeometry width="50" height="50" relative="1" as="geometry">
            <mxPoint x="800" y="380" as="sourcePoint" />
            <mxPoint x="640" y="430" as="targetPoint" />
          </mxGeometry>
        </mxCell>
        <mxCell id="KV3lKNW2GALLuynHb-iU-57" value="" style="ellipse;whiteSpace=wrap;html=1;" vertex="1" parent="1">
          <mxGeometry x="800" y="340" width="120" height="80" as="geometry" />
        </mxCell>
        <mxCell id="KV3lKNW2GALLuynHb-iU-58" value="查关键字表" style="text;html=1;resizable=0;autosize=1;align=center;verticalAlign=middle;points=[];fillColor=none;strokeColor=none;rounded=0;" vertex="1" parent="1">
          <mxGeometry x="820" y="370" width="80" height="20" as="geometry" />
        </mxCell>
        <mxCell id="KV3lKNW2GALLuynHb-iU-59" value="数字" style="text;html=1;resizable=0;autosize=1;align=center;verticalAlign=middle;points=[];fillColor=none;strokeColor=none;rounded=0;" vertex="1" parent="1">
          <mxGeometry x="290" y="550" width="40" height="20" as="geometry" />
        </mxCell>
        <mxCell id="KV3lKNW2GALLuynHb-iU-60" value="数字" style="text;html=1;resizable=0;autosize=1;align=center;verticalAlign=middle;points=[];fillColor=none;strokeColor=none;rounded=0;" vertex="1" parent="1">
          <mxGeometry x="375" y="480" width="40" height="20" as="geometry" />
        </mxCell>
        <mxCell id="KV3lKNW2GALLuynHb-iU-61" value="e" style="text;html=1;resizable=0;autosize=1;align=center;verticalAlign=middle;points=[];fillColor=none;strokeColor=none;rounded=0;" vertex="1" parent="1">
          <mxGeometry x="410" y="650" width="20" height="20" as="geometry" />
        </mxCell>
        <mxCell id="KV3lKNW2GALLuynHb-iU-62" value="非数字" style="text;html=1;resizable=0;autosize=1;align=center;verticalAlign=middle;points=[];fillColor=none;strokeColor=none;rounded=0;" vertex="1" parent="1">
          <mxGeometry x="620" y="650" width="50" height="20" as="geometry" />
        </mxCell>
        <mxCell id="KV3lKNW2GALLuynHb-iU-63" value="非数字" style="text;html=1;resizable=0;autosize=1;align=center;verticalAlign=middle;points=[];fillColor=none;strokeColor=none;rounded=0;" vertex="1" parent="1">
          <mxGeometry x="480" y="550" width="50" height="20" as="geometry" />
        </mxCell>
        <mxCell id="KV3lKNW2GALLuynHb-iU-64" value="字母、数字" style="text;html=1;resizable=0;autosize=1;align=center;verticalAlign=middle;points=[];fillColor=none;strokeColor=none;rounded=0;" vertex="1" parent="1">
          <mxGeometry x="355" y="350" width="80" height="20" as="geometry" />
        </mxCell>
        <mxCell id="KV3lKNW2GALLuynHb-iU-66" value="FFtemp" style="text;html=1;resizable=0;autosize=1;align=center;verticalAlign=middle;points=[];fillColor=none;strokeColor=none;rounded=0;" vertex="1" parent="1">
          <mxGeometry x="435" y="660" width="60" height="20" as="geometry" />
        </mxCell>
        <mxCell id="KV3lKNW2GALLuynHb-iU-67" value="" style="ellipse;whiteSpace=wrap;html=1;aspect=fixed;" vertex="1" parent="1">
          <mxGeometry x="560" y="640" width="60" height="60" as="geometry" />
        </mxCell>
        <mxCell id="KV3lKNW2GALLuynHb-iU-72" value="" style="endArrow=classic;html=1;rounded=0;" edge="1" parent="1">
          <mxGeometry width="50" height="50" relative="1" as="geometry">
            <mxPoint x="620" y="670" as="sourcePoint" />
            <mxPoint x="670" y="670" as="targetPoint" />
          </mxGeometry>
        </mxCell>
        <mxCell id="KV3lKNW2GALLuynHb-iU-74" value="数字、-" style="text;html=1;resizable=0;autosize=1;align=center;verticalAlign=middle;points=[];fillColor=none;strokeColor=none;rounded=0;" vertex="1" parent="1">
          <mxGeometry x="490" y="650" width="60" height="20" as="geometry" />
        </mxCell>
        <mxCell id="KV3lKNW2GALLuynHb-iU-76" value="" style="endArrow=classic;html=1;rounded=0;exitX=0.5;exitY=1;exitDx=0;exitDy=0;entryX=0.5;entryY=1;entryDx=0;entryDy=0;startArrow=none;" edge="1" parent="1" source="KV3lKNW2GALLuynHb-iU-79" target="KV3lKNW2GALLuynHb-iU-67">
          <mxGeometry width="50" height="50" relative="1" as="geometry">
            <mxPoint x="630" y="810" as="sourcePoint" />
            <mxPoint x="680" y="760" as="targetPoint" />
            <Array as="points">
              <mxPoint x="400" y="750" />
              <mxPoint x="590" y="750" />
            </Array>
          </mxGeometry>
        </mxCell>
        <mxCell id="KV3lKNW2GALLuynHb-iU-77" value="FF" style="text;html=1;resizable=0;autosize=1;align=center;verticalAlign=middle;points=[];fillColor=none;strokeColor=none;rounded=0;" vertex="1" parent="1">
          <mxGeometry x="575" y="660" width="30" height="20" as="geometry" />
        </mxCell>
        <mxCell id="KV3lKNW2GALLuynHb-iU-78" value="数字" style="text;html=1;resizable=0;autosize=1;align=center;verticalAlign=middle;points=[];fillColor=none;strokeColor=none;rounded=0;" vertex="1" parent="1">
          <mxGeometry x="565" y="580" width="40" height="20" as="geometry" />
        </mxCell>
        <mxCell id="KV3lKNW2GALLuynHb-iU-79" value="&quot;.&quot;" style="text;html=1;resizable=0;autosize=1;align=center;verticalAlign=middle;points=[];fillColor=none;strokeColor=none;rounded=0;" vertex="1" parent="1">
          <mxGeometry x="485" y="730" width="30" height="20" as="geometry" />
        </mxCell>
        <mxCell id="KV3lKNW2GALLuynHb-iU-80" value="" style="endArrow=none;html=1;rounded=0;exitX=0.5;exitY=1;exitDx=0;exitDy=0;" edge="1" parent="1" source="KV3lKNW2GALLuynHb-iU-9">
          <mxGeometry width="50" height="50" relative="1" as="geometry">
            <mxPoint x="400" y="600" as="sourcePoint" />
            <mxPoint x="400" y="750" as="targetPoint" />
            <Array as="points" />
          </mxGeometry>
        </mxCell>
        <mxCell id="KV3lKNW2GALLuynHb-iU-81" value="单界" style="text;html=1;resizable=0;autosize=1;align=center;verticalAlign=middle;points=[];fillColor=none;strokeColor=none;rounded=0;" vertex="1" parent="1">
          <mxGeometry x="370" y="850" width="40" height="20" as="geometry" />
        </mxCell>
        <mxCell id="KV3lKNW2GALLuynHb-iU-82" value="其他字符" style="text;html=1;resizable=0;autosize=1;align=center;verticalAlign=middle;points=[];fillColor=none;strokeColor=none;rounded=0;" vertex="1" parent="1">
          <mxGeometry x="490" y="840" width="60" height="20" as="geometry" />
        </mxCell>
        <mxCell id="KV3lKNW2GALLuynHb-iU-84" value="单界字符" style="text;html=1;resizable=0;autosize=1;align=center;verticalAlign=middle;points=[];fillColor=none;strokeColor=none;rounded=0;" vertex="1" parent="1">
          <mxGeometry x="260" y="840" width="60" height="20" as="geometry" />
        </mxCell>
        <mxCell id="KV3lKNW2GALLuynHb-iU-97" value="" style="endArrow=classic;html=1;rounded=0;" edge="1" parent="1">
          <mxGeometry width="50" height="50" relative="1" as="geometry">
            <mxPoint x="230" y="1111" as="sourcePoint" />
            <mxPoint x="310" y="1110" as="targetPoint" />
          </mxGeometry>
        </mxCell>
        <mxCell id="KV3lKNW2GALLuynHb-iU-108" style="edgeStyle=orthogonalEdgeStyle;rounded=0;orthogonalLoop=1;jettySize=auto;html=1;exitX=0.5;exitY=0;exitDx=0;exitDy=0;entryX=0.5;entryY=1;entryDx=0;entryDy=0;" edge="1" parent="1" source="KV3lKNW2GALLuynHb-iU-99" target="KV3lKNW2GALLuynHb-iU-23">
          <mxGeometry relative="1" as="geometry" />
        </mxCell>
        <mxCell id="KV3lKNW2GALLuynHb-iU-111" style="edgeStyle=orthogonalEdgeStyle;rounded=0;orthogonalLoop=1;jettySize=auto;html=1;exitX=1;exitY=0.5;exitDx=0;exitDy=0;" edge="1" parent="1" source="KV3lKNW2GALLuynHb-iU-99">
          <mxGeometry relative="1" as="geometry">
            <mxPoint x="660" y="1107" as="targetPoint" />
          </mxGeometry>
        </mxCell>
        <mxCell id="KV3lKNW2GALLuynHb-iU-99" value="&amp;amp;" style="ellipse;whiteSpace=wrap;html=1;aspect=fixed;" vertex="1" parent="1">
          <mxGeometry x="310" y="1077" width="60" height="60" as="geometry" />
        </mxCell>
        <mxCell id="KV3lKNW2GALLuynHb-iU-103" value="" style="endArrow=classic;html=1;rounded=0;" edge="1" parent="1">
          <mxGeometry width="50" height="50" relative="1" as="geometry">
            <mxPoint x="230" y="1234" as="sourcePoint" />
            <mxPoint x="310" y="1233" as="targetPoint" />
          </mxGeometry>
        </mxCell>
        <mxCell id="KV3lKNW2GALLuynHb-iU-112" style="edgeStyle=orthogonalEdgeStyle;rounded=0;orthogonalLoop=1;jettySize=auto;html=1;exitX=1;exitY=0.5;exitDx=0;exitDy=0;" edge="1" parent="1" source="KV3lKNW2GALLuynHb-iU-104">
          <mxGeometry relative="1" as="geometry">
            <mxPoint x="660" y="1230" as="targetPoint" />
          </mxGeometry>
        </mxCell>
        <mxCell id="KV3lKNW2GALLuynHb-iU-104" value="|" style="ellipse;whiteSpace=wrap;html=1;aspect=fixed;" vertex="1" parent="1">
          <mxGeometry x="310" y="1200" width="60" height="60" as="geometry" />
        </mxCell>
        <mxCell id="KV3lKNW2GALLuynHb-iU-110" value="" style="endArrow=none;html=1;rounded=0;exitX=0.5;exitY=0;exitDx=0;exitDy=0;" edge="1" parent="1" source="KV3lKNW2GALLuynHb-iU-104">
          <mxGeometry width="50" height="50" relative="1" as="geometry">
            <mxPoint x="460" y="1100" as="sourcePoint" />
            <mxPoint x="510" y="1050" as="targetPoint" />
            <Array as="points">
              <mxPoint x="340" y="1150" />
              <mxPoint x="510" y="1150" />
            </Array>
          </mxGeometry>
        </mxCell>
        <mxCell id="KV3lKNW2GALLuynHb-iU-113" value="其他字符" style="text;html=1;resizable=0;autosize=1;align=center;verticalAlign=middle;points=[];fillColor=none;strokeColor=none;rounded=0;" vertex="1" parent="1">
          <mxGeometry x="555" y="920" width="60" height="20" as="geometry" />
        </mxCell>
        <mxCell id="KV3lKNW2GALLuynHb-iU-115" value="其他字符" style="text;html=1;resizable=0;autosize=1;align=center;verticalAlign=middle;points=[];fillColor=none;strokeColor=none;rounded=0;" vertex="1" parent="1">
          <mxGeometry x="555" y="1090" width="60" height="20" as="geometry" />
        </mxCell>
        <mxCell id="KV3lKNW2GALLuynHb-iU-116" value="其他字符" style="text;html=1;resizable=0;autosize=1;align=center;verticalAlign=middle;points=[];fillColor=none;strokeColor=none;rounded=0;" vertex="1" parent="1">
          <mxGeometry x="560" y="1210" width="60" height="20" as="geometry" />
        </mxCell>
        <mxCell id="KV3lKNW2GALLuynHb-iU-117" value="&amp;amp;" style="text;html=1;resizable=0;autosize=1;align=center;verticalAlign=middle;points=[];fillColor=none;strokeColor=none;rounded=0;" vertex="1" parent="1">
          <mxGeometry x="420" y="1036" width="20" height="20" as="geometry" />
        </mxCell>
        <mxCell id="KV3lKNW2GALLuynHb-iU-118" value="|" style="text;html=1;resizable=0;autosize=1;align=center;verticalAlign=middle;points=[];fillColor=none;strokeColor=none;rounded=0;" vertex="1" parent="1">
          <mxGeometry x="420" y="1130" width="20" height="20" as="geometry" />
        </mxCell>
        <mxCell id="KV3lKNW2GALLuynHb-iU-119" value="&amp;amp;" style="text;html=1;resizable=0;autosize=1;align=center;verticalAlign=middle;points=[];fillColor=none;strokeColor=none;rounded=0;" vertex="1" parent="1">
          <mxGeometry x="260" y="1090" width="20" height="20" as="geometry" />
        </mxCell>
        <mxCell id="KV3lKNW2GALLuynHb-iU-120" value="|" style="text;html=1;resizable=0;autosize=1;align=center;verticalAlign=middle;points=[];fillColor=none;strokeColor=none;rounded=0;" vertex="1" parent="1">
          <mxGeometry x="260" y="1210" width="20" height="20" as="geometry" />
        </mxCell>
        <mxCell id="KV3lKNW2GALLuynHb-iU-121" value="&amp;gt;,&amp;lt;" style="text;html=1;resizable=0;autosize=1;align=center;verticalAlign=middle;points=[];fillColor=none;strokeColor=none;rounded=0;" vertex="1" parent="1">
          <mxGeometry x="265" y="990" width="30" height="20" as="geometry" />
        </mxCell>
        <mxCell id="KV3lKNW2GALLuynHb-iU-122" value="其他字符" style="text;html=1;resizable=0;autosize=1;align=center;verticalAlign=middle;points=[];fillColor=none;strokeColor=none;rounded=0;" vertex="1" parent="1">
          <mxGeometry x="555" y="990" width="60" height="20" as="geometry" />
        </mxCell>
        <mxCell id="KV3lKNW2GALLuynHb-iU-123" value="其他字符" style="text;html=1;resizable=0;autosize=1;align=center;verticalAlign=middle;points=[];fillColor=none;strokeColor=none;rounded=0;" vertex="1" parent="1">
          <mxGeometry x="235" y="1315" width="60" height="20" as="geometry" />
        </mxCell>
      </root>
    </mxGraphModel>
  </diagram>
</mxfile>
